<svg xmlns="http://www.w3.org/2000/svg" width="1020" height="600" viewBox="0 0 1020 600" font-family="Segoe UI, Helvetica, Arial, sans-serif"><rect width="1020" height="600" rx="14" fill="#f6f8fa"/><text x="60" y="56" font-size="26" font-weight="700" fill="#0d1117" text-anchor="start">Monthly Stack Cost vs Growth &#8212; The Tipping Point</text><text x="60" y="84" font-size="15" font-weight="400" fill="#57606a" text-anchor="start">Athena % fee is cheap solo, compounds with scale. Plan the flat-fee migration at ~$200K/mo.</text><line x1="120" y1="480" x2="940" y2="480" stroke="#d0d7de" stroke-width="2"/><line x1="120" y1="480" x2="940" y2="480" stroke="#d0d7de" stroke-width="1" opacity="0.5"/><text x="108" y="484.0" font-size="12" font-weight="400" fill="#57606a" text-anchor="end">$0</text><line x1="120" y1="415" x2="940" y2="415" stroke="#d0d7de" stroke-width="1" opacity="0.5"/><text x="108" y="418.54545454545456" font-size="12" font-weight="400" fill="#57606a" text-anchor="end">$2k</text><line x1="120" y1="349" x2="940" y2="349" stroke="#d0d7de" stroke-width="1" opacity="0.5"/><text x="108" y="353.0909090909091" font-size="12" font-weight="400" fill="#57606a" text-anchor="end">$4k</text><line x1="120" y1="284" x2="940" y2="284" stroke="#d0d7de" stroke-width="1" opacity="0.5"/><text x="108" y="287.6363636363636" font-size="12" font-weight="400" fill="#57606a" text-anchor="end">$6k</text><line x1="120" y1="218" x2="940" y2="218" stroke="#d0d7de" stroke-width="1" opacity="0.5"/><text x="108" y="222.1818181818182" font-size="12" font-weight="400" fill="#57606a" text-anchor="end">$8k</text><line x1="120" y1="153" x2="940" y2="153" stroke="#d0d7de" stroke-width="1" opacity="0.5"/><text x="108" y="156.72727272727275" font-size="12" font-weight="400" fill="#57606a" text-anchor="end">$10k</text><rect x="158.5" y="398.24727272727273" width="58" height="81.75272727272727" rx="6" fill="#1f6feb" opacity="1"/><text x="187.5" y="390.24727272727273" font-size="13" font-weight="700" fill="#1f6feb" text-anchor="middle">$2.5k</text><text x="222.5" y="504" font-size="13" font-weight="600" fill="#0d1117" text-anchor="middle">Solo</text><text x="222.5" y="522" font-size="13" font-weight="400" fill="#0d1117" text-anchor="middle">~$45k/mo</text><rect x="363.5" y="316.49454545454546" width="58" height="163.50545454545454" rx="6" fill="#1f6feb" opacity="1"/><text x="392.5" y="308.49454545454546" font-size="13" font-weight="700" fill="#1f6feb" text-anchor="middle">$5.0k</text><rect x="433.5" y="345.55636363636364" width="58" height="134.44363636363636" rx="6" fill="#bf8700" opacity="1"/><text x="462.5" y="337.55636363636364" font-size="13" font-weight="700" fill="#bf8700" text-anchor="middle">$4.1k</text><text x="427.5" y="504" font-size="13" font-weight="600" fill="#0d1117" text-anchor="middle">EOY1 &#8226; 2 prov</text><text x="427.5" y="522" font-size="13" font-weight="400" fill="#0d1117" text-anchor="middle">~$90k/mo</text><rect x="568.5" y="213.27272727272725" width="58" height="266.72727272727275" rx="6" fill="#1f6feb" opacity="1"/><text x="597.5" y="205.27272727272725" font-size="13" font-weight="700" fill="#1f6feb" text-anchor="middle">$8.2k</text><rect x="638.5" y="247.76727272727274" width="58" height="232.23272727272726" rx="6" fill="#bf8700" opacity="1"/><text x="667.5" y="239.76727272727274" font-size="13" font-weight="700" fill="#bf8700" text-anchor="middle">$7.1k</text><text x="632.5" y="504" font-size="13" font-weight="600" fill="#0d1117" text-anchor="middle">Y2 &#8226; 3-4 prov / 2 loc</text><text x="632.5" y="522" font-size="13" font-weight="400" fill="#0d1117" text-anchor="middle">~$150k/mo</text><rect x="773.5" y="152.72727272727275" width="58" height="327.27272727272725" rx="6" fill="#1f6feb" opacity="1"/><text x="802.5" y="144.72727272727275" font-size="13" font-weight="700" fill="#1f6feb" text-anchor="middle">$10.0k</text><rect x="843.5" y="231.27272727272728" width="58" height="248.72727272727272" rx="6" fill="#bf8700" opacity="1"/><text x="872.5" y="223.27272727272728" font-size="13" font-weight="700" fill="#bf8700" text-anchor="middle">$7.6k</text><text x="837.5" y="504" font-size="13" font-weight="600" fill="#0d1117" text-anchor="middle">Tipping</text><text x="837.5" y="522" font-size="13" font-weight="400" fill="#0d1117" text-anchor="middle">>$200k/mo</text><line x1="120" y1="153" x2="940" y2="153" stroke="#cf222e" stroke-width="2" stroke-dasharray="8 6"/><text x="130" y="143.72727272727275" font-size="13" font-weight="700" fill="#cf222e" text-anchor="start">Tipping ~$10k/mo &#8594; flat-fee EHR + in-house biller wins</text><rect x="120" y="540" width="16" height="16" rx="4" fill="#1f6feb" opacity="1"/><text x="144" y="553" font-size="14" font-weight="400" fill="#57606a" text-anchor="start">Athena-Lean (zero billing staff)</text><rect x="450" y="540" width="16" height="16" rx="4" fill="#bf8700" opacity="1"/><text x="474" y="553" font-size="14" font-weight="400" fill="#57606a" text-anchor="start">eCW + Agentic AI RCM (+ queue labor)</text></svg>