<svg xmlns="http://www.w3.org/2000/svg" width="1000" height="1050" viewBox="0 0 1000 1050" font-family="Segoe UI, Helvetica, Arial, sans-serif"><rect width="1000" height="1050" rx="14" fill="#f6f8fa"/><text x="500" y="52" font-size="28" font-weight="700" fill="#0d1117" text-anchor="middle">Luma Pediatrics — The Operating Flywheel</text><text x="500" y="84" font-size="16" font-weight="400" fill="#57606a" text-anchor="middle">Do stages 1–12 well &#8594; weekly loops (center) re-tune the engine</text><circle cx="500" cy="555" r="350" fill="none" stroke="#d0d7de" stroke-width="3" stroke-dasharray="2 10" stroke-linecap="round"/><line x1="571.5" y1="224.2" x2="603.5" y2="232.7" stroke="#d0d7de" stroke-width="3" marker-end="url(#ar)"/><line x1="727.3" y1="304.2" x2="750.8" y2="327.7" stroke="#d0d7de" stroke-width="3" marker-end="url(#ar)"/><line x1="822.3" y1="451.5" x2="830.8" y2="483.5" stroke="#d0d7de" stroke-width="3" marker-end="url(#ar)"/><line x1="830.8" y1="626.5" x2="822.3" y2="658.5" stroke="#d0d7de" stroke-width="3" marker-end="url(#ar)"/><line x1="750.8" y1="782.3" x2="727.3" y2="805.8" stroke="#d0d7de" stroke-width="3" marker-end="url(#ar)"/><line x1="603.5" y1="877.3" x2="571.5" y2="885.8" stroke="#d0d7de" stroke-width="3" marker-end="url(#ar)"/><line x1="428.5" y1="885.8" x2="396.5" y2="877.3" stroke="#d0d7de" stroke-width="3" marker-end="url(#ar)"/><line x1="272.7" y1="805.8" x2="249.2" y2="782.3" stroke="#d0d7de" stroke-width="3" marker-end="url(#ar)"/><line x1="177.7" y1="658.5" x2="169.2" y2="626.5" stroke="#d0d7de" stroke-width="3" marker-end="url(#ar)"/><line x1="169.2" y1="483.5" x2="177.7" y2="451.5" stroke="#d0d7de" stroke-width="3" marker-end="url(#ar)"/><line x1="249.2" y1="327.7" x2="272.7" y2="304.2" stroke="#d0d7de" stroke-width="3" marker-end="url(#ar)"/><line x1="396.5" y1="232.7" x2="428.5" y2="224.2" stroke="#d0d7de" stroke-width="3" marker-end="url(#ar)"/><circle cx="500.0" cy="205.0" r="74" fill="#ffffff" stroke="#238636" stroke-width="3"/><circle cx="500.0" cy="171.0" r="15" fill="#238636"/><text x="500.0" y="176.0" font-size="16" font-weight="700" fill="#fff" text-anchor="middle">1</text><text x="500.0" y="219.0" font-size="15" font-weight="700" fill="#0d1117" text-anchor="middle">Marketing</text><circle cx="675.0" cy="251.9" r="74" fill="#ffffff" stroke="#238636" stroke-width="3"/><circle cx="675.0" cy="217.9" r="15" fill="#238636"/><text x="675.0" y="222.89110867544645" font-size="16" font-weight="700" fill="#fff" text-anchor="middle">2</text><text x="675.0" y="255.89110867544645" font-size="15" font-weight="700" fill="#0d1117" text-anchor="middle">Intake</text><text x="675.0" y="275.89110867544645" font-size="15" font-weight="700" fill="#0d1117" text-anchor="middle">&amp; Consent</text><circle cx="803.1" cy="380.0" r="74" fill="#ffffff" stroke="#238636" stroke-width="3"/><circle cx="803.1" cy="346.0" r="15" fill="#238636"/><text x="803.1088913245535" y="351.0" font-size="16" font-weight="700" fill="#fff" text-anchor="middle">3</text><text x="803.1088913245535" y="384.0" font-size="15" font-weight="700" fill="#0d1117" text-anchor="middle">Front</text><text x="803.1088913245535" y="404.0" font-size="15" font-weight="700" fill="#0d1117" text-anchor="middle">Desk</text><circle cx="850.0" cy="555.0" r="74" fill="#ffffff" stroke="#1f6feb" stroke-width="3"/><circle cx="850.0" cy="521.0" r="15" fill="#1f6feb"/><text x="850.0" y="526.0" font-size="16" font-weight="700" fill="#fff" text-anchor="middle">4</text><text x="850.0" y="559.0" font-size="15" font-weight="700" fill="#0d1117" text-anchor="middle">MA</text><text x="850.0" y="579.0" font-size="15" font-weight="700" fill="#0d1117" text-anchor="middle">+ Provider</text><circle cx="803.1" cy="730.0" r="74" fill="#ffffff" stroke="#1f6feb" stroke-width="3"/><circle cx="803.1" cy="696.0" r="15" fill="#1f6feb"/><text x="803.1088913245535" y="701.0" font-size="16" font-weight="700" fill="#fff" text-anchor="middle">5</text><text x="803.1088913245535" y="734.0" font-size="15" font-weight="700" fill="#0d1117" text-anchor="middle">Claim</text><text x="803.1088913245535" y="754.0" font-size="15" font-weight="700" fill="#0d1117" text-anchor="middle">Sign-Off</text><circle cx="675.0" cy="858.1" r="74" fill="#ffffff" stroke="#1f6feb" stroke-width="3"/><circle cx="675.0" cy="824.1" r="15" fill="#1f6feb"/><text x="675.0" y="829.1088913245535" font-size="16" font-weight="700" fill="#fff" text-anchor="middle">6</text><text x="675.0" y="862.1088913245535" font-size="15" font-weight="700" fill="#0d1117" text-anchor="middle">Code</text><text x="675.0" y="882.1088913245535" font-size="15" font-weight="700" fill="#0d1117" text-anchor="middle">&amp; Scrub</text><circle cx="500.0" cy="905.0" r="74" fill="#ffffff" stroke="#1f6feb" stroke-width="3"/><circle cx="500.0" cy="871.0" r="15" fill="#1f6feb"/><text x="500.0" y="876.0" font-size="16" font-weight="700" fill="#fff" text-anchor="middle">7</text><text x="500.0" y="909.0" font-size="15" font-weight="700" fill="#0d1117" text-anchor="middle">Denial</text><text x="500.0" y="929.0" font-size="15" font-weight="700" fill="#0d1117" text-anchor="middle">Mgmt</text><circle cx="325.0" cy="858.1" r="74" fill="#ffffff" stroke="#238636" stroke-width="3"/><circle cx="325.0" cy="824.1" r="15" fill="#238636"/><text x="325.00000000000006" y="829.1088913245535" font-size="16" font-weight="700" fill="#fff" text-anchor="middle">8</text><text x="325.00000000000006" y="862.1088913245535" font-size="15" font-weight="700" fill="#0d1117" text-anchor="middle">Collect</text><text x="325.00000000000006" y="882.1088913245535" font-size="15" font-weight="700" fill="#0d1117" text-anchor="middle">Balance</text><circle cx="196.9" cy="730.0" r="74" fill="#ffffff" stroke="#238636" stroke-width="3"/><circle cx="196.9" cy="696.0" r="15" fill="#238636"/><text x="196.8911086754465" y="701.0000000000001" font-size="16" font-weight="700" fill="#fff" text-anchor="middle">9</text><text x="196.8911086754465" y="744.0000000000001" font-size="15" font-weight="700" fill="#0d1117" text-anchor="middle">Reviews</text><circle cx="150.0" cy="555.0" r="74" fill="#ffffff" stroke="#238636" stroke-width="3"/><circle cx="150.0" cy="521.0" r="15" fill="#238636"/><text x="150.0" y="526.0" font-size="16" font-weight="700" fill="#fff" text-anchor="middle">10</text><text x="150.0" y="569.0" font-size="15" font-weight="700" fill="#0d1117" text-anchor="middle">Follow-Up</text><circle cx="196.9" cy="380.0" r="74" fill="#ffffff" stroke="#238636" stroke-width="3"/><circle cx="196.9" cy="346.0" r="15" fill="#238636"/><text x="196.8911086754465" y="351.0" font-size="16" font-weight="700" fill="#fff" text-anchor="middle">11</text><text x="196.8911086754465" y="384.0" font-size="15" font-weight="700" fill="#0d1117" text-anchor="middle">Unified</text><text x="196.8911086754465" y="404.0" font-size="15" font-weight="700" fill="#0d1117" text-anchor="middle">Comms</text><circle cx="325.0" cy="251.9" r="74" fill="#ffffff" stroke="#8957e5" stroke-width="3"/><circle cx="325.0" cy="217.9" r="15" fill="#8957e5"/><text x="324.9999999999999" y="222.89110867544656" font-size="16" font-weight="700" fill="#fff" text-anchor="middle">12</text><text x="324.9999999999999" y="265.89110867544656" font-size="15" font-weight="700" fill="#0d1117" text-anchor="middle">Growth</text><circle cx="500" cy="555" r="150" fill="#ffffff" stroke="#8957e5" stroke-width="3"/><text x="500" y="469" font-size="15" font-weight="700" fill="#8957e5" text-anchor="middle">WEEKLY LOOP</text><circle cx="395" cy="505" r="13" fill="#8957e5"/><text x="395" y="510" font-size="13" font-weight="700" fill="#fff" text-anchor="middle">13</text><text x="418" y="510" font-size="16" font-weight="600" fill="#0d1117" text-anchor="start">RCM Tracking</text><circle cx="395" cy="551" r="13" fill="#8957e5"/><text x="395" y="556" font-size="13" font-weight="700" fill="#fff" text-anchor="middle">14</text><text x="418" y="556" font-size="16" font-weight="600" fill="#0d1117" text-anchor="start">Revenue / Cost Analysis</text><circle cx="395" cy="597" r="13" fill="#8957e5"/><text x="395" y="602" font-size="13" font-weight="700" fill="#fff" text-anchor="middle">15</text><text x="418" y="602" font-size="16" font-weight="600" fill="#0d1117" text-anchor="start">Growth Strategy</text><text x="500" y="673" font-size="14" font-weight="400" fill="#57606a" text-anchor="middle">Goals: &#128176; revenue  &#128184; cost  &#128522; experience  &#129309; low overhead</text><defs><marker id="ar" markerWidth="10" markerHeight="10" refX="8" refY="3" orient="auto"><path d="M0,0 L8,3 L0,6 Z" fill="#d0d7de"/></marker></defs><rect x="60" y="1001" width="16" height="16" rx="4" fill="#238636" opacity="1"/><text x="84" y="1015" font-size="14" font-weight="400" fill="#57606a" text-anchor="start">Patient experience</text><rect x="290" y="1001" width="16" height="16" rx="4" fill="#1f6feb" opacity="1"/><text x="314" y="1015" font-size="14" font-weight="400" fill="#57606a" text-anchor="start">Revenue / claim</text><rect x="520" y="1001" width="16" height="16" rx="4" fill="#8957e5" opacity="1"/><text x="544" y="1015" font-size="14" font-weight="400" fill="#57606a" text-anchor="start">Ops &amp; growth</text></svg>